<svg width="68" height="119" viewBox="0 0 68 119" fill="none" xmlns="http://www.w3.org/2000/svg">
<path d="M23.7727 85.2727V84.5909C23.8485 77.3561 24.6061 71.5985 26.0455 67.3182C27.4848 63.0379 29.5303 59.572 32.1818 56.9205C34.8333 54.2689 38.0152 51.8258 41.7273 49.5909C43.9621 48.2273 45.9697 46.6174 47.75 44.7614C49.5303 42.8674 50.9318 40.6894 51.9545 38.2273C53.0152 35.7652 53.5455 33.0379 53.5455 30.0455C53.5455 26.3333 52.6742 23.1136 50.9318 20.3864C49.1894 17.6591 46.8599 15.5568 43.9432 14.0795C41.0265 12.6023 37.7879 11.8636 34.2273 11.8636C31.1212 11.8636 28.1288 12.5076 25.25 13.7955C22.3712 15.0833 19.9659 17.1098 18.0341 19.875C16.1023 22.6401 14.9848 26.2576 14.6818 30.7273H0.363636C0.666667 24.2879 2.33333 18.7765 5.36364 14.1932C8.43182 9.60985 12.4659 6.10606 17.4659 3.68181C22.5038 1.25757 28.0909 0.0454502 34.2273 0.0454502C40.8939 0.0454502 46.6894 1.37121 51.6136 4.02272C56.5758 6.67424 60.4015 10.3106 63.0909 14.9318C65.8182 19.553 67.1818 24.8182 67.1818 30.7273C67.1818 34.8939 66.5379 38.6629 65.25 42.0341C64 45.4053 62.1818 48.4167 59.7955 51.0682C57.447 53.7197 54.6061 56.0682 51.2727 58.1136C47.9394 60.197 45.2689 62.3939 43.2614 64.7045C41.2538 66.9773 39.7955 69.6856 38.8864 72.8295C37.9773 75.9735 37.4848 79.8939 37.4091 84.5909V85.2727H23.7727ZM31.0455 118.909C28.2424 118.909 25.8371 117.905 23.8295 115.898C21.822 113.89 20.8182 111.485 20.8182 108.682C20.8182 105.879 21.822 103.473 23.8295 101.466C25.8371 99.4583 28.2424 98.4545 31.0455 98.4545C33.8485 98.4545 36.2538 99.4583 38.2614 101.466C40.2689 103.473 41.2727 105.879 41.2727 108.682C41.2727 110.538 40.7992 112.242 39.8523 113.795C38.9432 115.348 37.7121 116.598 36.1591 117.545C34.6439 118.455 32.9394 118.909 31.0455 118.909Z" fill="white"/>
</svg>
