<svg width="231" height="48" viewBox="0 0 231 48" fill="none" xmlns="http://www.w3.org/2000/svg">
<g clip-path="url(#clip0_32_16)">
<path d="M97.5785 21.5795V25.9545H80.7148V21.5795H97.5785ZM81.8285 8.45454V39H77.1353V8.45454H81.8285ZM101.158 8.45454V39H96.4648V8.45454H101.158ZM118.718 39.7159C116.782 39.7159 115.025 39.3513 113.448 38.6222C111.87 37.8797 110.617 36.8125 109.689 35.4205C108.761 34.0152 108.297 32.3182 108.297 30.3295C108.297 28.5795 108.642 27.161 109.331 26.0739C110.021 24.9735 110.942 24.1117 112.096 23.4886C113.249 22.8655 114.522 22.4015 115.914 22.0966C117.319 21.7784 118.731 21.5265 120.15 21.3409C122.006 21.1023 123.51 20.9233 124.664 20.804C125.83 20.6714 126.679 20.4527 127.209 20.1477C127.753 19.8428 128.025 19.3125 128.025 18.5568V18.3977C128.025 16.4356 127.488 14.911 126.414 13.8239C125.353 12.7367 123.742 12.1932 121.581 12.1932C119.341 12.1932 117.584 12.6837 116.311 13.6648C115.039 14.6458 114.144 15.6932 113.627 16.8068L109.172 15.2159C109.968 13.3598 111.028 11.9148 112.354 10.8807C113.693 9.83333 115.151 9.10417 116.729 8.69318C118.32 8.26894 119.884 8.05682 121.422 8.05682C122.403 8.05682 123.53 8.17614 124.803 8.41477C126.089 8.64015 127.328 9.11079 128.522 9.8267C129.728 10.5426 130.729 11.6231 131.525 13.0682C132.32 14.5133 132.718 16.4489 132.718 18.875V39H128.025V34.8636H127.786C127.468 35.5265 126.937 36.2358 126.195 36.9915C125.453 37.7472 124.465 38.3902 123.232 38.9205C121.999 39.4508 120.494 39.7159 118.718 39.7159ZM119.434 35.5C121.29 35.5 122.854 35.1354 124.127 34.4062C125.413 33.6771 126.381 32.7358 127.03 31.5824C127.693 30.429 128.025 29.2159 128.025 27.9432V23.6477C127.826 23.8864 127.388 24.1051 126.712 24.304C126.049 24.4896 125.28 24.6553 124.405 24.8011C123.543 24.9337 122.702 25.053 121.88 25.1591C121.071 25.2519 120.415 25.3314 119.911 25.3977C118.691 25.5568 117.551 25.8153 116.49 26.1733C115.443 26.518 114.595 27.0417 113.945 27.7443C113.309 28.4337 112.99 29.375 112.99 30.5682C112.99 32.1989 113.594 33.4318 114.8 34.267C116.02 35.089 117.564 35.5 119.434 35.5ZM139.375 31.2045H144.386C144.492 32.5833 145.115 33.6307 146.255 34.3466C147.409 35.0625 148.907 35.4205 150.75 35.4205C152.632 35.4205 154.243 35.036 155.582 34.267C156.921 33.4848 157.591 32.2254 157.591 30.4886C157.591 29.4678 157.339 28.5795 156.835 27.8239C156.331 27.0549 155.622 26.4583 154.707 26.0341C153.792 25.6098 152.712 25.3977 151.466 25.3977H146.216V21.1818H151.466C153.335 21.1818 154.714 20.7576 155.602 19.9091C156.503 19.0606 156.954 18 156.954 16.7273C156.954 15.3617 156.47 14.268 155.502 13.446C154.535 12.6108 153.163 12.1932 151.386 12.1932C149.596 12.1932 148.105 12.5975 146.912 13.4062C145.718 14.2017 145.089 15.2292 145.022 16.4886H140.091C140.144 14.8447 140.647 13.393 141.602 12.1335C142.556 10.8608 143.856 9.86648 145.5 9.15057C147.144 8.4214 149.026 8.05682 151.147 8.05682C153.295 8.05682 155.158 8.43466 156.735 9.19034C158.326 9.93276 159.553 10.947 160.414 12.233C161.289 13.5057 161.727 14.9508 161.727 16.5682C161.727 18.2917 161.243 19.6837 160.275 20.7443C159.307 21.8049 158.094 22.5606 156.636 23.0114V23.3295C157.789 23.4091 158.79 23.7803 159.639 24.4432C160.501 25.0928 161.17 25.9479 161.647 27.0085C162.125 28.0559 162.363 29.2159 162.363 30.4886C162.363 32.3447 161.866 33.9621 160.872 35.3409C159.877 36.7064 158.512 37.767 156.775 38.5227C155.038 39.2652 153.056 39.6364 150.829 39.6364C148.668 39.6364 146.733 39.285 145.022 38.5824C143.312 37.8665 141.953 36.8788 140.946 35.6193C139.951 34.3466 139.428 32.875 139.375 31.2045ZM177.944 39.7159C176.009 39.7159 174.252 39.3513 172.674 38.6222C171.097 37.8797 169.844 36.8125 168.916 35.4205C167.988 34.0152 167.524 32.3182 167.524 30.3295C167.524 28.5795 167.868 27.161 168.558 26.0739C169.247 24.9735 170.169 24.1117 171.322 23.4886C172.475 22.8655 173.748 22.4015 175.14 22.0966C176.546 21.7784 177.958 21.5265 179.376 21.3409C181.232 21.1023 182.737 20.9233 183.89 20.804C185.057 20.6714 185.905 20.4527 186.436 20.1477C186.979 19.8428 187.251 19.3125 187.251 18.5568V18.3977C187.251 16.4356 186.714 14.911 185.64 13.8239C184.58 12.7367 182.969 12.1932 180.808 12.1932C178.567 12.1932 176.811 12.6837 175.538 13.6648C174.265 14.6458 173.37 15.6932 172.853 16.8068L168.399 15.2159C169.194 13.3598 170.255 11.9148 171.581 10.8807C172.92 9.83333 174.378 9.10417 175.956 8.69318C177.547 8.26894 179.111 8.05682 180.649 8.05682C181.63 8.05682 182.757 8.17614 184.029 8.41477C185.315 8.64015 186.555 9.11079 187.748 9.8267C188.955 10.5426 189.956 11.6231 190.751 13.0682C191.547 14.5133 191.944 16.4489 191.944 18.875V39H187.251V34.8636H187.012C186.694 35.5265 186.164 36.2358 185.422 36.9915C184.679 37.7472 183.691 38.3902 182.458 38.9205C181.225 39.4508 179.721 39.7159 177.944 39.7159ZM178.66 35.5C180.516 35.5 182.081 35.1354 183.353 34.4062C184.639 33.6771 185.607 32.7358 186.257 31.5824C186.92 30.429 187.251 29.2159 187.251 27.9432V23.6477C187.052 23.8864 186.615 24.1051 185.939 24.304C185.276 24.4896 184.507 24.6553 183.632 24.8011C182.77 24.9337 181.928 25.053 181.106 25.1591C180.297 25.2519 179.641 25.3314 179.137 25.3977C177.918 25.5568 176.778 25.8153 175.717 26.1733C174.67 26.518 173.821 27.0417 173.172 27.7443C172.535 28.4337 172.217 29.375 172.217 30.5682C172.217 32.1989 172.82 33.4318 174.027 34.267C175.246 35.089 176.791 35.5 178.66 35.5ZM197.249 47.75V34.625H199.794C200.417 33.9754 200.954 33.2727 201.405 32.517C201.856 31.7614 202.247 30.8665 202.578 29.8324C202.923 28.785 203.215 27.5123 203.453 26.0142C203.692 24.5028 203.904 22.6799 204.09 20.5455L205.124 8.45454H224.533V34.625H229.226V47.75H224.533V39H201.942V47.75H197.249ZM205.124 34.625H219.84V12.8295H209.499L208.703 20.5455C208.372 23.7405 207.961 26.5312 207.471 28.9176C206.98 31.304 206.198 33.2064 205.124 34.625Z" fill="black"/>
<path d="M24 16L16 24M16 24L24 32M16 24H32M44 24C44 35.0457 35.0457 44 24 44C12.9543 44 4 35.0457 4 24C4 12.9543 12.9543 4 24 4C35.0457 4 44 12.9543 44 24Z" stroke="#1E1E1E" stroke-width="4" stroke-linecap="round" stroke-linejoin="round"/>
</g>
<defs>
<clipPath id="clip0_32_16">
<rect width="231" height="48" fill="white"/>
</clipPath>
</defs>
</svg>
